<mxfile host="Electron" modified="2023-12-19T23:00:50.447Z" agent="Mozilla/5.0 (Windows NT 10.0; Win64; x64) AppleWebKit/537.36 (KHTML, like Gecko) draw.io/22.1.11 Chrome/114.0.5735.289 Electron/25.9.8 Safari/537.36" etag="UY2MRLy3_AE4fgT6R8TM" version="22.1.11" type="device">
  <diagram name="Страница — 1" id="xZ7PZt7mGAjFSv3M-NrA">
    <mxGraphModel dx="1152" dy="688" grid="1" gridSize="10" guides="1" tooltips="1" connect="1" arrows="1" fold="1" page="1" pageScale="1" pageWidth="1169" pageHeight="827" math="0" shadow="0">
      <root>
        <mxCell id="0" />
        <mxCell id="1" parent="0" />
        <mxCell id="sjRCPDyThOvmZD7QMET8-1" value="Клиент" style="shape=umlActor;verticalLabelPosition=bottom;verticalAlign=top;html=1;outlineConnect=0;" vertex="1" parent="1">
          <mxGeometry x="570" y="630" width="30" height="60" as="geometry" />
        </mxCell>
        <mxCell id="sjRCPDyThOvmZD7QMET8-2" value="Связь с менеджером" style="ellipse;whiteSpace=wrap;html=1;" vertex="1" parent="1">
          <mxGeometry x="720" y="640" width="120" height="80" as="geometry" />
        </mxCell>
        <mxCell id="sjRCPDyThOvmZD7QMET8-3" value="Оформление заказа" style="ellipse;whiteSpace=wrap;html=1;" vertex="1" parent="1">
          <mxGeometry x="600" y="520" width="120" height="80" as="geometry" />
        </mxCell>
        <mxCell id="sjRCPDyThOvmZD7QMET8-4" value="Работа с профилем" style="ellipse;whiteSpace=wrap;html=1;" vertex="1" parent="1">
          <mxGeometry x="440" y="520" width="120" height="80" as="geometry" />
        </mxCell>
        <mxCell id="sjRCPDyThOvmZD7QMET8-5" value="Регистрация" style="ellipse;whiteSpace=wrap;html=1;" vertex="1" parent="1">
          <mxGeometry x="320" y="640" width="120" height="80" as="geometry" />
        </mxCell>
        <mxCell id="sjRCPDyThOvmZD7QMET8-6" value="Менеджер" style="shape=umlActor;verticalLabelPosition=bottom;verticalAlign=top;html=1;outlineConnect=0;" vertex="1" parent="1">
          <mxGeometry x="570" y="414" width="30" height="60" as="geometry" />
        </mxCell>
        <mxCell id="sjRCPDyThOvmZD7QMET8-7" value="Связь с клиентом" style="ellipse;whiteSpace=wrap;html=1;" vertex="1" parent="1">
          <mxGeometry x="360" y="404" width="120" height="80" as="geometry" />
        </mxCell>
        <mxCell id="sjRCPDyThOvmZD7QMET8-8" value="Просмотр профиля клиента" style="ellipse;whiteSpace=wrap;html=1;" vertex="1" parent="1">
          <mxGeometry x="690" y="404" width="120" height="80" as="geometry" />
        </mxCell>
        <mxCell id="sjRCPDyThOvmZD7QMET8-9" value="Оформление данных об исполнении заказа" style="ellipse;whiteSpace=wrap;html=1;" vertex="1" parent="1">
          <mxGeometry x="440" y="280" width="120" height="80" as="geometry" />
        </mxCell>
        <mxCell id="sjRCPDyThOvmZD7QMET8-10" value="Занесение сведений о заказе" style="ellipse;whiteSpace=wrap;html=1;" vertex="1" parent="1">
          <mxGeometry x="600" y="280" width="120" height="80" as="geometry" />
        </mxCell>
        <mxCell id="sjRCPDyThOvmZD7QMET8-11" value="Мастер" style="shape=umlActor;verticalLabelPosition=bottom;verticalAlign=top;html=1;outlineConnect=0;" vertex="1" parent="1">
          <mxGeometry x="960" y="330" width="30" height="60" as="geometry" />
        </mxCell>
        <mxCell id="sjRCPDyThOvmZD7QMET8-12" value="Отчетность о состоянии заказа" style="ellipse;whiteSpace=wrap;html=1;" vertex="1" parent="1">
          <mxGeometry x="870" y="180" width="120" height="80" as="geometry" />
        </mxCell>
        <mxCell id="sjRCPDyThOvmZD7QMET8-13" value="Получение данных о комплектующих" style="ellipse;whiteSpace=wrap;html=1;" vertex="1" parent="1">
          <mxGeometry x="1040" y="260" width="120" height="80" as="geometry" />
        </mxCell>
        <mxCell id="sjRCPDyThOvmZD7QMET8-14" value="Просмотр сведений о заказе" style="ellipse;whiteSpace=wrap;html=1;" vertex="1" parent="1">
          <mxGeometry x="1040" y="420" width="120" height="80" as="geometry" />
        </mxCell>
        <mxCell id="sjRCPDyThOvmZD7QMET8-15" value="Заведующий складом" style="shape=umlActor;verticalLabelPosition=bottom;verticalAlign=top;html=1;outlineConnect=0;" vertex="1" parent="1">
          <mxGeometry x="170" y="330" width="30" height="60" as="geometry" />
        </mxCell>
        <mxCell id="sjRCPDyThOvmZD7QMET8-16" value="Заполнение данныз о дате&lt;br&gt;поставок" style="ellipse;whiteSpace=wrap;html=1;" vertex="1" parent="1">
          <mxGeometry x="180" y="180" width="120" height="80" as="geometry" />
        </mxCell>
        <mxCell id="sjRCPDyThOvmZD7QMET8-18" value="Заполнение данных о готовых товарах" style="ellipse;whiteSpace=wrap;html=1;" vertex="1" parent="1">
          <mxGeometry x="10" y="420" width="120" height="80" as="geometry" />
        </mxCell>
        <mxCell id="sjRCPDyThOvmZD7QMET8-20" value="Предоставление данных о комплектующих в наличии" style="ellipse;whiteSpace=wrap;html=1;" vertex="1" parent="1">
          <mxGeometry x="10" y="250" width="120" height="80" as="geometry" />
        </mxCell>
        <mxCell id="sjRCPDyThOvmZD7QMET8-22" value="Начальник" style="shape=umlActor;verticalLabelPosition=bottom;verticalAlign=top;html=1;outlineConnect=0;" vertex="1" parent="1">
          <mxGeometry x="570" y="20" width="30" height="60" as="geometry" />
        </mxCell>
        <mxCell id="sjRCPDyThOvmZD7QMET8-23" value="Просмотр отзывов о сервисе" style="ellipse;whiteSpace=wrap;html=1;" vertex="1" parent="1">
          <mxGeometry x="380" y="10" width="120" height="80" as="geometry" />
        </mxCell>
        <mxCell id="sjRCPDyThOvmZD7QMET8-24" value="Получение отчетов о работе" style="ellipse;whiteSpace=wrap;html=1;" vertex="1" parent="1">
          <mxGeometry x="660" y="10" width="120" height="80" as="geometry" />
        </mxCell>
        <mxCell id="sjRCPDyThOvmZD7QMET8-25" value="" style="endArrow=none;html=1;rounded=0;exitX=0;exitY=0.5;exitDx=0;exitDy=0;entryX=0.5;entryY=0.5;entryDx=0;entryDy=0;entryPerimeter=0;" edge="1" parent="1" source="sjRCPDyThOvmZD7QMET8-2" target="sjRCPDyThOvmZD7QMET8-1">
          <mxGeometry width="50" height="50" relative="1" as="geometry">
            <mxPoint x="720" y="640" as="sourcePoint" />
            <mxPoint x="670" y="150" as="targetPoint" />
          </mxGeometry>
        </mxCell>
        <mxCell id="sjRCPDyThOvmZD7QMET8-26" value="" style="endArrow=none;html=1;rounded=0;entryX=0.5;entryY=0.5;entryDx=0;entryDy=0;entryPerimeter=0;exitX=1;exitY=0.5;exitDx=0;exitDy=0;" edge="1" parent="1" source="sjRCPDyThOvmZD7QMET8-5" target="sjRCPDyThOvmZD7QMET8-1">
          <mxGeometry width="50" height="50" relative="1" as="geometry">
            <mxPoint x="500" y="690" as="sourcePoint" />
            <mxPoint x="630" y="680" as="targetPoint" />
            <Array as="points" />
          </mxGeometry>
        </mxCell>
        <mxCell id="sjRCPDyThOvmZD7QMET8-27" value="" style="endArrow=none;html=1;rounded=0;exitX=0;exitY=1;exitDx=0;exitDy=0;entryX=1;entryY=0.3333333333333333;entryDx=0;entryDy=0;entryPerimeter=0;" edge="1" parent="1" source="sjRCPDyThOvmZD7QMET8-3" target="sjRCPDyThOvmZD7QMET8-1">
          <mxGeometry width="50" height="50" relative="1" as="geometry">
            <mxPoint x="600" y="630" as="sourcePoint" />
            <mxPoint x="730" y="620" as="targetPoint" />
          </mxGeometry>
        </mxCell>
        <mxCell id="sjRCPDyThOvmZD7QMET8-28" value="" style="endArrow=none;html=1;rounded=0;exitX=0;exitY=0.3333333333333333;exitDx=0;exitDy=0;exitPerimeter=0;entryX=1;entryY=1;entryDx=0;entryDy=0;" edge="1" parent="1" source="sjRCPDyThOvmZD7QMET8-1" target="sjRCPDyThOvmZD7QMET8-4">
          <mxGeometry width="50" height="50" relative="1" as="geometry">
            <mxPoint x="290" y="560" as="sourcePoint" />
            <mxPoint x="420" y="550" as="targetPoint" />
          </mxGeometry>
        </mxCell>
        <mxCell id="sjRCPDyThOvmZD7QMET8-29" value="" style="endArrow=none;html=1;rounded=0;entryX=0.5;entryY=0.5;entryDx=0;entryDy=0;entryPerimeter=0;exitX=1;exitY=0.5;exitDx=0;exitDy=0;" edge="1" parent="1" source="sjRCPDyThOvmZD7QMET8-7" target="sjRCPDyThOvmZD7QMET8-6">
          <mxGeometry width="50" height="50" relative="1" as="geometry">
            <mxPoint x="300" y="360" as="sourcePoint" />
            <mxPoint x="430" y="350" as="targetPoint" />
            <Array as="points">
              <mxPoint x="530" y="444" />
            </Array>
          </mxGeometry>
        </mxCell>
        <mxCell id="sjRCPDyThOvmZD7QMET8-30" value="" style="endArrow=none;html=1;rounded=0;exitX=0;exitY=0.5;exitDx=0;exitDy=0;entryX=0.5;entryY=0.5;entryDx=0;entryDy=0;entryPerimeter=0;" edge="1" parent="1" source="sjRCPDyThOvmZD7QMET8-8" target="sjRCPDyThOvmZD7QMET8-6">
          <mxGeometry width="50" height="50" relative="1" as="geometry">
            <mxPoint x="770" y="520" as="sourcePoint" />
            <mxPoint x="900" y="510" as="targetPoint" />
          </mxGeometry>
        </mxCell>
        <mxCell id="sjRCPDyThOvmZD7QMET8-31" value="" style="endArrow=none;html=1;rounded=0;entryX=0;entryY=1;entryDx=0;entryDy=0;exitX=1;exitY=0.3333333333333333;exitDx=0;exitDy=0;exitPerimeter=0;" edge="1" parent="1" source="sjRCPDyThOvmZD7QMET8-6" target="sjRCPDyThOvmZD7QMET8-10">
          <mxGeometry width="50" height="50" relative="1" as="geometry">
            <mxPoint x="780" y="540" as="sourcePoint" />
            <mxPoint x="910" y="530" as="targetPoint" />
          </mxGeometry>
        </mxCell>
        <mxCell id="sjRCPDyThOvmZD7QMET8-32" value="" style="endArrow=none;html=1;rounded=0;exitX=0;exitY=0.3333333333333333;exitDx=0;exitDy=0;exitPerimeter=0;entryX=1;entryY=1;entryDx=0;entryDy=0;" edge="1" parent="1" source="sjRCPDyThOvmZD7QMET8-6" target="sjRCPDyThOvmZD7QMET8-9">
          <mxGeometry width="50" height="50" relative="1" as="geometry">
            <mxPoint x="890" y="520" as="sourcePoint" />
            <mxPoint x="1020" y="510" as="targetPoint" />
          </mxGeometry>
        </mxCell>
        <mxCell id="sjRCPDyThOvmZD7QMET8-33" value="" style="endArrow=none;html=1;rounded=0;entryX=0;entryY=0.3333333333333333;entryDx=0;entryDy=0;entryPerimeter=0;exitX=0.5;exitY=1;exitDx=0;exitDy=0;" edge="1" parent="1" source="sjRCPDyThOvmZD7QMET8-12" target="sjRCPDyThOvmZD7QMET8-11">
          <mxGeometry width="50" height="50" relative="1" as="geometry">
            <mxPoint x="860" y="420" as="sourcePoint" />
            <mxPoint x="990" y="410" as="targetPoint" />
          </mxGeometry>
        </mxCell>
        <mxCell id="sjRCPDyThOvmZD7QMET8-34" value="" style="endArrow=none;html=1;rounded=0;exitX=0;exitY=0;exitDx=0;exitDy=0;entryX=0.5;entryY=0.5;entryDx=0;entryDy=0;entryPerimeter=0;" edge="1" parent="1" source="sjRCPDyThOvmZD7QMET8-14" target="sjRCPDyThOvmZD7QMET8-11">
          <mxGeometry width="50" height="50" relative="1" as="geometry">
            <mxPoint x="1050" y="380" as="sourcePoint" />
            <mxPoint x="1180" y="370" as="targetPoint" />
          </mxGeometry>
        </mxCell>
        <mxCell id="sjRCPDyThOvmZD7QMET8-35" value="" style="endArrow=none;html=1;rounded=0;exitX=1;exitY=0.3333333333333333;exitDx=0;exitDy=0;exitPerimeter=0;entryX=0;entryY=0.5;entryDx=0;entryDy=0;" edge="1" parent="1" source="sjRCPDyThOvmZD7QMET8-11" target="sjRCPDyThOvmZD7QMET8-13">
          <mxGeometry width="50" height="50" relative="1" as="geometry">
            <mxPoint x="1020" y="330" as="sourcePoint" />
            <mxPoint x="1050" y="360" as="targetPoint" />
          </mxGeometry>
        </mxCell>
        <mxCell id="sjRCPDyThOvmZD7QMET8-36" value="" style="endArrow=none;html=1;rounded=0;exitX=1;exitY=0.3333333333333333;exitDx=0;exitDy=0;exitPerimeter=0;entryX=0.5;entryY=1;entryDx=0;entryDy=0;" edge="1" parent="1" source="sjRCPDyThOvmZD7QMET8-15" target="sjRCPDyThOvmZD7QMET8-16">
          <mxGeometry width="50" height="50" relative="1" as="geometry">
            <mxPoint x="280" y="330" as="sourcePoint" />
            <mxPoint x="410" y="320" as="targetPoint" />
          </mxGeometry>
        </mxCell>
        <mxCell id="sjRCPDyThOvmZD7QMET8-37" value="" style="endArrow=none;html=1;rounded=0;exitX=1;exitY=0;exitDx=0;exitDy=0;entryX=0.5;entryY=0.5;entryDx=0;entryDy=0;entryPerimeter=0;" edge="1" parent="1" source="sjRCPDyThOvmZD7QMET8-18" target="sjRCPDyThOvmZD7QMET8-15">
          <mxGeometry width="50" height="50" relative="1" as="geometry">
            <mxPoint x="90" y="360" as="sourcePoint" />
            <mxPoint x="220" y="350" as="targetPoint" />
          </mxGeometry>
        </mxCell>
        <mxCell id="sjRCPDyThOvmZD7QMET8-38" value="" style="endArrow=none;html=1;rounded=0;exitX=0;exitY=0.3333333333333333;exitDx=0;exitDy=0;exitPerimeter=0;entryX=1;entryY=0.5;entryDx=0;entryDy=0;" edge="1" parent="1" source="sjRCPDyThOvmZD7QMET8-15" target="sjRCPDyThOvmZD7QMET8-20">
          <mxGeometry width="50" height="50" relative="1" as="geometry">
            <mxPoint x="300" y="340" as="sourcePoint" />
            <mxPoint x="430" y="330" as="targetPoint" />
          </mxGeometry>
        </mxCell>
        <mxCell id="sjRCPDyThOvmZD7QMET8-39" value="" style="endArrow=none;html=1;rounded=0;entryX=0;entryY=0.5;entryDx=0;entryDy=0;exitX=0.5;exitY=0.5;exitDx=0;exitDy=0;exitPerimeter=0;" edge="1" parent="1" source="sjRCPDyThOvmZD7QMET8-22" target="sjRCPDyThOvmZD7QMET8-24">
          <mxGeometry width="50" height="50" relative="1" as="geometry">
            <mxPoint x="620" y="120" as="sourcePoint" />
            <mxPoint x="750" y="110" as="targetPoint" />
          </mxGeometry>
        </mxCell>
        <mxCell id="sjRCPDyThOvmZD7QMET8-40" value="" style="endArrow=none;html=1;rounded=0;exitX=0.5;exitY=0.5;exitDx=0;exitDy=0;exitPerimeter=0;entryX=1;entryY=0.5;entryDx=0;entryDy=0;" edge="1" parent="1" source="sjRCPDyThOvmZD7QMET8-22" target="sjRCPDyThOvmZD7QMET8-23">
          <mxGeometry width="50" height="50" relative="1" as="geometry">
            <mxPoint x="560" y="170" as="sourcePoint" />
            <mxPoint x="690" y="160" as="targetPoint" />
          </mxGeometry>
        </mxCell>
        <mxCell id="sjRCPDyThOvmZD7QMET8-41" value="" style="endArrow=classic;startArrow=classic;html=1;rounded=0;exitX=0.5;exitY=0;exitDx=0;exitDy=0;exitPerimeter=0;" edge="1" parent="1" source="sjRCPDyThOvmZD7QMET8-1" target="sjRCPDyThOvmZD7QMET8-6">
          <mxGeometry width="50" height="50" relative="1" as="geometry">
            <mxPoint x="620" y="240" as="sourcePoint" />
            <mxPoint x="670" y="190" as="targetPoint" />
          </mxGeometry>
        </mxCell>
        <mxCell id="sjRCPDyThOvmZD7QMET8-44" value="" style="endArrow=classic;startArrow=classic;html=1;rounded=0;entryX=0.5;entryY=0.5;entryDx=0;entryDy=0;entryPerimeter=0;exitX=0.5;exitY=0.5;exitDx=0;exitDy=0;exitPerimeter=0;" edge="1" parent="1" source="sjRCPDyThOvmZD7QMET8-15" target="sjRCPDyThOvmZD7QMET8-11">
          <mxGeometry width="50" height="50" relative="1" as="geometry">
            <mxPoint x="620" y="330" as="sourcePoint" />
            <mxPoint x="670" y="280" as="targetPoint" />
            <Array as="points">
              <mxPoint x="580" y="210" />
            </Array>
          </mxGeometry>
        </mxCell>
        <mxCell id="sjRCPDyThOvmZD7QMET8-46" value="" style="endArrow=block;startArrow=block;endFill=1;startFill=1;html=1;rounded=0;entryX=0;entryY=1;entryDx=0;entryDy=0;entryPerimeter=0;exitX=0.5;exitY=0.5;exitDx=0;exitDy=0;exitPerimeter=0;" edge="1" parent="1" source="sjRCPDyThOvmZD7QMET8-6" target="sjRCPDyThOvmZD7QMET8-11">
          <mxGeometry width="160" relative="1" as="geometry">
            <mxPoint x="560" y="450" as="sourcePoint" />
            <mxPoint x="720" y="450" as="targetPoint" />
            <Array as="points">
              <mxPoint x="760" y="370" />
            </Array>
          </mxGeometry>
        </mxCell>
        <mxCell id="sjRCPDyThOvmZD7QMET8-47" value="Extends" style="endArrow=block;endSize=16;endFill=0;html=1;rounded=0;exitX=0.5;exitY=0.5;exitDx=0;exitDy=0;exitPerimeter=0;entryX=0.5;entryY=0.5;entryDx=0;entryDy=0;entryPerimeter=0;" edge="1" parent="1" source="sjRCPDyThOvmZD7QMET8-22" target="sjRCPDyThOvmZD7QMET8-11">
          <mxGeometry width="160" relative="1" as="geometry">
            <mxPoint x="610" y="150" as="sourcePoint" />
            <mxPoint x="720" y="310" as="targetPoint" />
          </mxGeometry>
        </mxCell>
        <mxCell id="sjRCPDyThOvmZD7QMET8-48" value="Extends" style="endArrow=block;endSize=16;endFill=0;html=1;rounded=0;entryX=0.5;entryY=0.5;entryDx=0;entryDy=0;entryPerimeter=0;exitX=0.5;exitY=0.5;exitDx=0;exitDy=0;exitPerimeter=0;" edge="1" parent="1" source="sjRCPDyThOvmZD7QMET8-22" target="sjRCPDyThOvmZD7QMET8-15">
          <mxGeometry width="160" relative="1" as="geometry">
            <mxPoint x="500" y="120" as="sourcePoint" />
            <mxPoint x="720" y="310" as="targetPoint" />
          </mxGeometry>
        </mxCell>
        <mxCell id="sjRCPDyThOvmZD7QMET8-50" value="" style="endArrow=block;startArrow=block;endFill=1;startFill=1;html=1;rounded=0;exitX=0.5;exitY=0.5;exitDx=0;exitDy=0;exitPerimeter=0;entryX=0.5;entryY=0.5;entryDx=0;entryDy=0;entryPerimeter=0;" edge="1" parent="1" source="sjRCPDyThOvmZD7QMET8-15" target="sjRCPDyThOvmZD7QMET8-6">
          <mxGeometry width="160" relative="1" as="geometry">
            <mxPoint x="560" y="450" as="sourcePoint" />
            <mxPoint x="720" y="450" as="targetPoint" />
          </mxGeometry>
        </mxCell>
      </root>
    </mxGraphModel>
  </diagram>
</mxfile>
